<mxfile host="app.diagrams.net" agent="Mozilla/5.0 (Windows NT 10.0; Win64; x64) AppleWebKit/537.36 (KHTML, like Gecko) Chrome/127.0.0.0 Safari/537.36" version="24.7.6">
  <diagram name="Page-1" id="7e0a89b8-554c-2b80-1dc8-d5c74ca68de4">
    <mxGraphModel dx="1395" dy="620" grid="1" gridSize="10" guides="1" tooltips="1" connect="1" arrows="1" fold="1" page="1" pageScale="1" pageWidth="827" pageHeight="1169" background="none" math="0" shadow="0">
      <root>
        <mxCell id="0" />
        <mxCell id="1" parent="0" />
        <mxCell id="uhZbqTB7t5NrahT7hXU0-39" value="" style="shape=table;startSize=0;container=1;collapsible=0;childLayout=tableLayout;strokeColor=#0F2FFF;" vertex="1" parent="1">
          <mxGeometry x="330" y="80" width="230" height="40" as="geometry" />
        </mxCell>
        <mxCell id="uhZbqTB7t5NrahT7hXU0-40" value="" style="shape=tableRow;horizontal=0;startSize=0;swimlaneHead=0;swimlaneBody=0;strokeColor=inherit;top=0;left=0;bottom=0;right=0;collapsible=0;dropTarget=0;fillColor=none;points=[[0,0.5],[1,0.5]];portConstraint=eastwest;" vertex="1" parent="uhZbqTB7t5NrahT7hXU0-39">
          <mxGeometry width="230" height="40" as="geometry" />
        </mxCell>
        <mxCell id="uhZbqTB7t5NrahT7hXU0-41" value="0" style="shape=partialRectangle;html=1;whiteSpace=wrap;connectable=0;strokeColor=inherit;overflow=hidden;fillColor=none;top=0;left=0;bottom=0;right=0;pointerEvents=1;" vertex="1" parent="uhZbqTB7t5NrahT7hXU0-40">
          <mxGeometry width="29" height="40" as="geometry">
            <mxRectangle width="29" height="40" as="alternateBounds" />
          </mxGeometry>
        </mxCell>
        <mxCell id="uhZbqTB7t5NrahT7hXU0-42" value="0" style="shape=partialRectangle;html=1;whiteSpace=wrap;connectable=0;strokeColor=#0F2FFF;overflow=hidden;fillColor=none;top=0;left=0;bottom=0;right=0;pointerEvents=1;shadow=1;" vertex="1" parent="uhZbqTB7t5NrahT7hXU0-40">
          <mxGeometry x="29" width="29" height="40" as="geometry">
            <mxRectangle width="29" height="40" as="alternateBounds" />
          </mxGeometry>
        </mxCell>
        <mxCell id="uhZbqTB7t5NrahT7hXU0-43" value="0" style="shape=partialRectangle;html=1;whiteSpace=wrap;connectable=0;strokeColor=inherit;overflow=hidden;fillColor=none;top=0;left=0;bottom=0;right=0;pointerEvents=1;shadow=0;" vertex="1" parent="uhZbqTB7t5NrahT7hXU0-40">
          <mxGeometry x="58" width="28" height="40" as="geometry">
            <mxRectangle width="28" height="40" as="alternateBounds" />
          </mxGeometry>
        </mxCell>
        <mxCell id="uhZbqTB7t5NrahT7hXU0-44" value="0" style="shape=partialRectangle;html=1;whiteSpace=wrap;connectable=0;strokeColor=inherit;overflow=hidden;fillColor=none;top=0;left=0;bottom=0;right=0;pointerEvents=1;" vertex="1" parent="uhZbqTB7t5NrahT7hXU0-40">
          <mxGeometry x="86" width="29" height="40" as="geometry">
            <mxRectangle width="29" height="40" as="alternateBounds" />
          </mxGeometry>
        </mxCell>
        <mxCell id="uhZbqTB7t5NrahT7hXU0-45" value="0" style="shape=partialRectangle;html=1;whiteSpace=wrap;connectable=0;strokeColor=inherit;overflow=hidden;fillColor=none;top=0;left=0;bottom=0;right=0;pointerEvents=1;" vertex="1" parent="uhZbqTB7t5NrahT7hXU0-40">
          <mxGeometry x="115" width="29" height="40" as="geometry">
            <mxRectangle width="29" height="40" as="alternateBounds" />
          </mxGeometry>
        </mxCell>
        <mxCell id="uhZbqTB7t5NrahT7hXU0-46" value="0" style="shape=partialRectangle;html=1;whiteSpace=wrap;connectable=0;strokeColor=inherit;overflow=hidden;fillColor=none;top=0;left=0;bottom=0;right=0;pointerEvents=1;" vertex="1" parent="uhZbqTB7t5NrahT7hXU0-40">
          <mxGeometry x="144" width="29" height="40" as="geometry">
            <mxRectangle width="29" height="40" as="alternateBounds" />
          </mxGeometry>
        </mxCell>
        <mxCell id="uhZbqTB7t5NrahT7hXU0-47" value="0" style="shape=partialRectangle;html=1;whiteSpace=wrap;connectable=0;strokeColor=inherit;overflow=hidden;fillColor=none;top=0;left=0;bottom=0;right=0;pointerEvents=1;" vertex="1" parent="uhZbqTB7t5NrahT7hXU0-40">
          <mxGeometry x="173" width="28" height="40" as="geometry">
            <mxRectangle width="28" height="40" as="alternateBounds" />
          </mxGeometry>
        </mxCell>
        <mxCell id="uhZbqTB7t5NrahT7hXU0-48" value="0" style="shape=partialRectangle;html=1;whiteSpace=wrap;connectable=0;strokeColor=inherit;overflow=hidden;fillColor=none;top=0;left=0;bottom=0;right=0;pointerEvents=1;" vertex="1" parent="uhZbqTB7t5NrahT7hXU0-40">
          <mxGeometry x="201" width="29" height="40" as="geometry">
            <mxRectangle width="29" height="40" as="alternateBounds" />
          </mxGeometry>
        </mxCell>
        <mxCell id="uhZbqTB7t5NrahT7hXU0-49" value="" style="shape=table;startSize=0;container=1;collapsible=0;childLayout=tableLayout;strokeColor=#0F2FFF;" vertex="1" parent="1">
          <mxGeometry x="370" y="160" width="230" height="40" as="geometry" />
        </mxCell>
        <mxCell id="uhZbqTB7t5NrahT7hXU0-50" value="" style="shape=tableRow;horizontal=0;startSize=0;swimlaneHead=0;swimlaneBody=0;strokeColor=inherit;top=0;left=0;bottom=0;right=0;collapsible=0;dropTarget=0;fillColor=none;points=[[0,0.5],[1,0.5]];portConstraint=eastwest;" vertex="1" parent="uhZbqTB7t5NrahT7hXU0-49">
          <mxGeometry width="230" height="40" as="geometry" />
        </mxCell>
        <mxCell id="uhZbqTB7t5NrahT7hXU0-51" value="1" style="shape=partialRectangle;html=1;whiteSpace=wrap;connectable=0;strokeColor=inherit;overflow=hidden;fillColor=none;top=0;left=0;bottom=0;right=0;pointerEvents=1;" vertex="1" parent="uhZbqTB7t5NrahT7hXU0-50">
          <mxGeometry width="29" height="40" as="geometry">
            <mxRectangle width="29" height="40" as="alternateBounds" />
          </mxGeometry>
        </mxCell>
        <mxCell id="uhZbqTB7t5NrahT7hXU0-52" value="0" style="shape=partialRectangle;html=1;whiteSpace=wrap;connectable=0;strokeColor=inherit;overflow=hidden;fillColor=none;top=0;left=0;bottom=0;right=0;pointerEvents=1;" vertex="1" parent="uhZbqTB7t5NrahT7hXU0-50">
          <mxGeometry x="29" width="29" height="40" as="geometry">
            <mxRectangle width="29" height="40" as="alternateBounds" />
          </mxGeometry>
        </mxCell>
        <mxCell id="uhZbqTB7t5NrahT7hXU0-53" value="0" style="shape=partialRectangle;html=1;whiteSpace=wrap;connectable=0;strokeColor=inherit;overflow=hidden;fillColor=none;top=0;left=0;bottom=0;right=0;pointerEvents=1;" vertex="1" parent="uhZbqTB7t5NrahT7hXU0-50">
          <mxGeometry x="58" width="28" height="40" as="geometry">
            <mxRectangle width="28" height="40" as="alternateBounds" />
          </mxGeometry>
        </mxCell>
        <mxCell id="uhZbqTB7t5NrahT7hXU0-54" value="0" style="shape=partialRectangle;html=1;whiteSpace=wrap;connectable=0;strokeColor=inherit;overflow=hidden;fillColor=none;top=0;left=0;bottom=0;right=0;pointerEvents=1;" vertex="1" parent="uhZbqTB7t5NrahT7hXU0-50">
          <mxGeometry x="86" width="29" height="40" as="geometry">
            <mxRectangle width="29" height="40" as="alternateBounds" />
          </mxGeometry>
        </mxCell>
        <mxCell id="uhZbqTB7t5NrahT7hXU0-55" value="0" style="shape=partialRectangle;html=1;whiteSpace=wrap;connectable=0;strokeColor=inherit;overflow=hidden;fillColor=none;top=0;left=0;bottom=0;right=0;pointerEvents=1;" vertex="1" parent="uhZbqTB7t5NrahT7hXU0-50">
          <mxGeometry x="115" width="29" height="40" as="geometry">
            <mxRectangle width="29" height="40" as="alternateBounds" />
          </mxGeometry>
        </mxCell>
        <mxCell id="uhZbqTB7t5NrahT7hXU0-56" value="0" style="shape=partialRectangle;html=1;whiteSpace=wrap;connectable=0;strokeColor=inherit;overflow=hidden;fillColor=none;top=0;left=0;bottom=0;right=0;pointerEvents=1;" vertex="1" parent="uhZbqTB7t5NrahT7hXU0-50">
          <mxGeometry x="144" width="29" height="40" as="geometry">
            <mxRectangle width="29" height="40" as="alternateBounds" />
          </mxGeometry>
        </mxCell>
        <mxCell id="uhZbqTB7t5NrahT7hXU0-57" value="0" style="shape=partialRectangle;html=1;whiteSpace=wrap;connectable=0;strokeColor=inherit;overflow=hidden;fillColor=none;top=0;left=0;bottom=0;right=0;pointerEvents=1;" vertex="1" parent="uhZbqTB7t5NrahT7hXU0-50">
          <mxGeometry x="173" width="28" height="40" as="geometry">
            <mxRectangle width="28" height="40" as="alternateBounds" />
          </mxGeometry>
        </mxCell>
        <mxCell id="uhZbqTB7t5NrahT7hXU0-58" value="0" style="shape=partialRectangle;html=1;whiteSpace=wrap;connectable=0;strokeColor=inherit;overflow=hidden;fillColor=none;top=0;left=0;bottom=0;right=0;pointerEvents=1;" vertex="1" parent="uhZbqTB7t5NrahT7hXU0-50">
          <mxGeometry x="201" width="29" height="40" as="geometry">
            <mxRectangle width="29" height="40" as="alternateBounds" />
          </mxGeometry>
        </mxCell>
        <mxCell id="uhZbqTB7t5NrahT7hXU0-59" value="" style="shape=table;startSize=0;container=1;collapsible=0;childLayout=tableLayout;shadow=0;strokeColor=#0F2FFF;" vertex="1" parent="1">
          <mxGeometry x="410" y="240" width="230" height="40" as="geometry" />
        </mxCell>
        <mxCell id="uhZbqTB7t5NrahT7hXU0-60" value="" style="shape=tableRow;horizontal=0;startSize=0;swimlaneHead=0;swimlaneBody=0;strokeColor=inherit;top=0;left=0;bottom=0;right=0;collapsible=0;dropTarget=0;fillColor=none;points=[[0,0.5],[1,0.5]];portConstraint=eastwest;" vertex="1" parent="uhZbqTB7t5NrahT7hXU0-59">
          <mxGeometry width="230" height="40" as="geometry" />
        </mxCell>
        <mxCell id="uhZbqTB7t5NrahT7hXU0-61" value="1" style="shape=partialRectangle;html=1;whiteSpace=wrap;connectable=0;strokeColor=inherit;overflow=hidden;fillColor=none;top=0;left=0;bottom=0;right=0;pointerEvents=1;" vertex="1" parent="uhZbqTB7t5NrahT7hXU0-60">
          <mxGeometry width="29" height="40" as="geometry">
            <mxRectangle width="29" height="40" as="alternateBounds" />
          </mxGeometry>
        </mxCell>
        <mxCell id="uhZbqTB7t5NrahT7hXU0-62" value="1" style="shape=partialRectangle;html=1;whiteSpace=wrap;connectable=0;strokeColor=inherit;overflow=hidden;fillColor=none;top=0;left=0;bottom=0;right=0;pointerEvents=1;" vertex="1" parent="uhZbqTB7t5NrahT7hXU0-60">
          <mxGeometry x="29" width="29" height="40" as="geometry">
            <mxRectangle width="29" height="40" as="alternateBounds" />
          </mxGeometry>
        </mxCell>
        <mxCell id="uhZbqTB7t5NrahT7hXU0-63" value="0" style="shape=partialRectangle;html=1;whiteSpace=wrap;connectable=0;strokeColor=#0F2FFF;overflow=hidden;fillColor=none;top=0;left=0;bottom=0;right=0;pointerEvents=1;" vertex="1" parent="uhZbqTB7t5NrahT7hXU0-60">
          <mxGeometry x="58" width="28" height="40" as="geometry">
            <mxRectangle width="28" height="40" as="alternateBounds" />
          </mxGeometry>
        </mxCell>
        <mxCell id="uhZbqTB7t5NrahT7hXU0-64" value="0" style="shape=partialRectangle;html=1;whiteSpace=wrap;connectable=0;strokeColor=inherit;overflow=hidden;fillColor=none;top=0;left=0;bottom=0;right=0;pointerEvents=1;" vertex="1" parent="uhZbqTB7t5NrahT7hXU0-60">
          <mxGeometry x="86" width="29" height="40" as="geometry">
            <mxRectangle width="29" height="40" as="alternateBounds" />
          </mxGeometry>
        </mxCell>
        <mxCell id="uhZbqTB7t5NrahT7hXU0-65" value="0" style="shape=partialRectangle;html=1;whiteSpace=wrap;connectable=0;strokeColor=inherit;overflow=hidden;fillColor=none;top=0;left=0;bottom=0;right=0;pointerEvents=1;" vertex="1" parent="uhZbqTB7t5NrahT7hXU0-60">
          <mxGeometry x="115" width="29" height="40" as="geometry">
            <mxRectangle width="29" height="40" as="alternateBounds" />
          </mxGeometry>
        </mxCell>
        <mxCell id="uhZbqTB7t5NrahT7hXU0-66" value="0" style="shape=partialRectangle;html=1;whiteSpace=wrap;connectable=0;strokeColor=inherit;overflow=hidden;fillColor=none;top=0;left=0;bottom=0;right=0;pointerEvents=1;" vertex="1" parent="uhZbqTB7t5NrahT7hXU0-60">
          <mxGeometry x="144" width="29" height="40" as="geometry">
            <mxRectangle width="29" height="40" as="alternateBounds" />
          </mxGeometry>
        </mxCell>
        <mxCell id="uhZbqTB7t5NrahT7hXU0-67" value="0" style="shape=partialRectangle;html=1;whiteSpace=wrap;connectable=0;strokeColor=inherit;overflow=hidden;fillColor=none;top=0;left=0;bottom=0;right=0;pointerEvents=1;" vertex="1" parent="uhZbqTB7t5NrahT7hXU0-60">
          <mxGeometry x="173" width="28" height="40" as="geometry">
            <mxRectangle width="28" height="40" as="alternateBounds" />
          </mxGeometry>
        </mxCell>
        <mxCell id="uhZbqTB7t5NrahT7hXU0-68" value="0" style="shape=partialRectangle;html=1;whiteSpace=wrap;connectable=0;strokeColor=inherit;overflow=hidden;fillColor=none;top=0;left=0;bottom=0;right=0;pointerEvents=1;" vertex="1" parent="uhZbqTB7t5NrahT7hXU0-60">
          <mxGeometry x="201" width="29" height="40" as="geometry">
            <mxRectangle width="29" height="40" as="alternateBounds" />
          </mxGeometry>
        </mxCell>
        <mxCell id="uhZbqTB7t5NrahT7hXU0-74" style="edgeStyle=orthogonalEdgeStyle;rounded=0;orthogonalLoop=1;jettySize=auto;html=1;entryX=0;entryY=0.5;entryDx=0;entryDy=0;" edge="1" parent="1" source="uhZbqTB7t5NrahT7hXU0-70" target="uhZbqTB7t5NrahT7hXU0-50">
          <mxGeometry relative="1" as="geometry" />
        </mxCell>
        <mxCell id="uhZbqTB7t5NrahT7hXU0-96" style="edgeStyle=orthogonalEdgeStyle;rounded=0;orthogonalLoop=1;jettySize=auto;html=1;exitX=0.5;exitY=1;exitDx=0;exitDy=0;entryX=0;entryY=0.5;entryDx=0;entryDy=0;" edge="1" parent="1" source="uhZbqTB7t5NrahT7hXU0-70" target="uhZbqTB7t5NrahT7hXU0-60">
          <mxGeometry relative="1" as="geometry" />
        </mxCell>
        <mxCell id="uhZbqTB7t5NrahT7hXU0-109" style="edgeStyle=orthogonalEdgeStyle;rounded=0;orthogonalLoop=1;jettySize=auto;html=1;entryX=0;entryY=0.5;entryDx=0;entryDy=0;" edge="1" parent="1" source="uhZbqTB7t5NrahT7hXU0-70" target="uhZbqTB7t5NrahT7hXU0-40">
          <mxGeometry relative="1" as="geometry" />
        </mxCell>
        <mxCell id="uhZbqTB7t5NrahT7hXU0-124" style="edgeStyle=orthogonalEdgeStyle;rounded=0;orthogonalLoop=1;jettySize=auto;html=1;exitX=0.5;exitY=1;exitDx=0;exitDy=0;entryX=0;entryY=0.5;entryDx=0;entryDy=0;" edge="1" parent="1" source="uhZbqTB7t5NrahT7hXU0-70" target="uhZbqTB7t5NrahT7hXU0-113">
          <mxGeometry relative="1" as="geometry" />
        </mxCell>
        <mxCell id="uhZbqTB7t5NrahT7hXU0-150" value="SER" style="edgeLabel;html=1;align=center;verticalAlign=middle;resizable=0;points=[];" vertex="1" connectable="0" parent="uhZbqTB7t5NrahT7hXU0-124">
          <mxGeometry x="-0.9184" y="2" relative="1" as="geometry">
            <mxPoint as="offset" />
          </mxGeometry>
        </mxCell>
        <mxCell id="uhZbqTB7t5NrahT7hXU0-149" style="edgeStyle=orthogonalEdgeStyle;rounded=0;orthogonalLoop=1;jettySize=auto;html=1;exitX=0.25;exitY=1;exitDx=0;exitDy=0;entryX=0;entryY=0.5;entryDx=0;entryDy=0;" edge="1" parent="1" source="uhZbqTB7t5NrahT7hXU0-70" target="uhZbqTB7t5NrahT7hXU0-139">
          <mxGeometry relative="1" as="geometry" />
        </mxCell>
        <mxCell id="uhZbqTB7t5NrahT7hXU0-70" value="Raspberry PI" style="shape=parallelogram;perimeter=parallelogramPerimeter;whiteSpace=wrap;html=1;fixedSize=1;" vertex="1" parent="1">
          <mxGeometry x="100" y="70" width="120" height="60" as="geometry" />
        </mxCell>
        <mxCell id="uhZbqTB7t5NrahT7hXU0-73" value="Condição inicial" style="text;html=1;align=center;verticalAlign=middle;whiteSpace=wrap;rounded=0;" vertex="1" parent="1">
          <mxGeometry x="570" y="85" width="60" height="30" as="geometry" />
        </mxCell>
        <mxCell id="uhZbqTB7t5NrahT7hXU0-75" value="&lt;div style=&quot;color: rgb(36, 41, 46); background-color: rgb(255, 255, 255); font-family: Consolas, &amp;quot;Courier New&amp;quot;, monospace; font-size: 14px; line-height: 19px; white-space: pre;&quot;&gt;&lt;span style=&quot;color: #032f62;&quot;&gt;1001101&lt;/span&gt;&lt;/div&gt;" style="text;html=1;align=center;verticalAlign=middle;whiteSpace=wrap;rounded=0;" vertex="1" parent="1">
          <mxGeometry x="240" y="160" width="60" height="30" as="geometry" />
        </mxCell>
        <mxCell id="uhZbqTB7t5NrahT7hXU0-78" style="edgeStyle=orthogonalEdgeStyle;rounded=0;orthogonalLoop=1;jettySize=auto;html=1;exitX=0.25;exitY=1;exitDx=0;exitDy=0;entryX=0;entryY=0.816;entryDx=0;entryDy=0;entryPerimeter=0;" edge="1" parent="1" source="uhZbqTB7t5NrahT7hXU0-70" target="uhZbqTB7t5NrahT7hXU0-50">
          <mxGeometry relative="1" as="geometry" />
        </mxCell>
        <mxCell id="uhZbqTB7t5NrahT7hXU0-93" value="" style="group" vertex="1" connectable="0" parent="1">
          <mxGeometry x="230" y="200" width="70" height="20" as="geometry" />
        </mxCell>
        <mxCell id="uhZbqTB7t5NrahT7hXU0-76" value="SRCLK&amp;nbsp;&amp;nbsp;" style="text;html=1;align=center;verticalAlign=middle;whiteSpace=wrap;rounded=0;" vertex="1" parent="uhZbqTB7t5NrahT7hXU0-93">
          <mxGeometry y="5" width="50" height="10" as="geometry" />
        </mxCell>
        <mxCell id="uhZbqTB7t5NrahT7hXU0-92" value="" style="group" vertex="1" connectable="0" parent="uhZbqTB7t5NrahT7hXU0-93">
          <mxGeometry x="50" width="20" height="20" as="geometry" />
        </mxCell>
        <mxCell id="uhZbqTB7t5NrahT7hXU0-88" value="" style="endArrow=none;html=1;rounded=0;movable=1;resizable=1;rotatable=1;deletable=1;editable=1;locked=0;connectable=1;" edge="1" parent="uhZbqTB7t5NrahT7hXU0-92">
          <mxGeometry width="50" height="50" relative="1" as="geometry">
            <mxPoint x="10" as="sourcePoint" />
            <mxPoint x="20" as="targetPoint" />
          </mxGeometry>
        </mxCell>
        <mxCell id="uhZbqTB7t5NrahT7hXU0-91" value="" style="edgeStyle=segmentEdgeStyle;endArrow=classic;html=1;curved=0;rounded=0;endSize=8;startSize=8;movable=1;resizable=1;rotatable=1;deletable=1;editable=1;locked=0;connectable=1;" edge="1" parent="uhZbqTB7t5NrahT7hXU0-92">
          <mxGeometry width="50" height="50" relative="1" as="geometry">
            <mxPoint y="20" as="sourcePoint" />
            <mxPoint x="10" as="targetPoint" />
          </mxGeometry>
        </mxCell>
        <mxCell id="uhZbqTB7t5NrahT7hXU0-94" value="Primeiro impulso" style="text;html=1;align=center;verticalAlign=middle;whiteSpace=wrap;rounded=0;" vertex="1" parent="1">
          <mxGeometry x="610" y="165" width="60" height="30" as="geometry" />
        </mxCell>
        <mxCell id="uhZbqTB7t5NrahT7hXU0-98" style="edgeStyle=orthogonalEdgeStyle;rounded=0;orthogonalLoop=1;jettySize=auto;html=1;exitX=0.25;exitY=1;exitDx=0;exitDy=0;entryX=0;entryY=0.774;entryDx=0;entryDy=0;entryPerimeter=0;" edge="1" parent="1" source="uhZbqTB7t5NrahT7hXU0-70" target="uhZbqTB7t5NrahT7hXU0-60">
          <mxGeometry relative="1" as="geometry" />
        </mxCell>
        <mxCell id="uhZbqTB7t5NrahT7hXU0-99" value="&lt;div style=&quot;color: rgb(36, 41, 46); background-color: rgb(255, 255, 255); font-family: Consolas, &amp;quot;Courier New&amp;quot;, monospace; font-size: 14px; line-height: 19px; white-space: pre;&quot;&gt;&lt;span style=&quot;color: #032f62;&quot;&gt;100110&lt;/span&gt;&lt;/div&gt;" style="text;html=1;align=center;verticalAlign=middle;whiteSpace=wrap;rounded=0;" vertex="1" parent="1">
          <mxGeometry x="240" y="240" width="60" height="30" as="geometry" />
        </mxCell>
        <mxCell id="uhZbqTB7t5NrahT7hXU0-100" value="" style="group" vertex="1" connectable="0" parent="1">
          <mxGeometry x="230" y="280" width="70" height="20" as="geometry" />
        </mxCell>
        <mxCell id="uhZbqTB7t5NrahT7hXU0-101" value="SRCLK&amp;nbsp;&amp;nbsp;" style="text;html=1;align=center;verticalAlign=middle;whiteSpace=wrap;rounded=0;" vertex="1" parent="uhZbqTB7t5NrahT7hXU0-100">
          <mxGeometry y="5" width="50" height="10" as="geometry" />
        </mxCell>
        <mxCell id="uhZbqTB7t5NrahT7hXU0-102" value="" style="group" vertex="1" connectable="0" parent="uhZbqTB7t5NrahT7hXU0-100">
          <mxGeometry x="50" width="20" height="20" as="geometry" />
        </mxCell>
        <mxCell id="uhZbqTB7t5NrahT7hXU0-103" value="" style="endArrow=none;html=1;rounded=0;movable=1;resizable=1;rotatable=1;deletable=1;editable=1;locked=0;connectable=1;" edge="1" parent="uhZbqTB7t5NrahT7hXU0-102">
          <mxGeometry width="50" height="50" relative="1" as="geometry">
            <mxPoint x="10" as="sourcePoint" />
            <mxPoint x="20" as="targetPoint" />
          </mxGeometry>
        </mxCell>
        <mxCell id="uhZbqTB7t5NrahT7hXU0-104" value="" style="edgeStyle=segmentEdgeStyle;endArrow=classic;html=1;curved=0;rounded=0;endSize=8;startSize=8;movable=1;resizable=1;rotatable=1;deletable=1;editable=1;locked=0;connectable=1;" edge="1" parent="uhZbqTB7t5NrahT7hXU0-102">
          <mxGeometry width="50" height="50" relative="1" as="geometry">
            <mxPoint y="20" as="sourcePoint" />
            <mxPoint x="10" as="targetPoint" />
          </mxGeometry>
        </mxCell>
        <mxCell id="uhZbqTB7t5NrahT7hXU0-105" value="Primeiro impulso" style="text;html=1;align=center;verticalAlign=middle;whiteSpace=wrap;rounded=0;" vertex="1" parent="1">
          <mxGeometry x="650" y="245" width="60" height="30" as="geometry" />
        </mxCell>
        <mxCell id="uhZbqTB7t5NrahT7hXU0-110" value="&lt;div style=&quot;color: rgb(36, 41, 46); background-color: rgb(255, 255, 255); font-family: Consolas, &amp;quot;Courier New&amp;quot;, monospace; font-size: 14px; line-height: 19px; white-space: pre;&quot;&gt;&lt;span style=&quot;color: #032f62;&quot;&gt;10011011&lt;/span&gt;&lt;/div&gt;" style="text;html=1;align=center;verticalAlign=middle;whiteSpace=wrap;rounded=0;" vertex="1" parent="1">
          <mxGeometry x="240" y="80" width="60" height="30" as="geometry" />
        </mxCell>
        <mxCell id="uhZbqTB7t5NrahT7hXU0-111" value="(...)" style="text;html=1;align=center;verticalAlign=middle;whiteSpace=wrap;rounded=0;" vertex="1" parent="1">
          <mxGeometry x="490" y="290" width="60" height="20" as="geometry" />
        </mxCell>
        <mxCell id="uhZbqTB7t5NrahT7hXU0-112" value="" style="shape=table;startSize=0;container=1;collapsible=0;childLayout=tableLayout;strokeColor=#0F2FFF;points=[[0,0,0,0,0],[0,0.25,0,0,0],[0,0.5,0,0,0],[0,0.75,0,0,0],[0,1,0,0,0],[0.09,0.99,0,0,0],[0.25,0,0,0,0],[0.25,1,0,0,0],[0.35,0.99,0,0,0],[0.5,0,0,0,0],[0.5,1,0,0,0],[0.61,1,0,0,1],[0.75,0,0,0,0],[0.75,1,0,0,0],[0.88,1,0,0,0],[1,0,0,0,0],[1,0.25,0,0,0],[1,0.5,0,0,0],[1,0.75,0,0,0],[1,1,0,0,0]];" vertex="1" parent="1">
          <mxGeometry x="440" y="320" width="230" height="40" as="geometry" />
        </mxCell>
        <mxCell id="uhZbqTB7t5NrahT7hXU0-113" value="" style="shape=tableRow;horizontal=0;startSize=0;swimlaneHead=0;swimlaneBody=0;strokeColor=inherit;top=0;left=0;bottom=0;right=0;collapsible=0;dropTarget=0;fillColor=none;points=[[0,0.5],[1,0.5]];portConstraint=eastwest;" vertex="1" parent="uhZbqTB7t5NrahT7hXU0-112">
          <mxGeometry width="230" height="40" as="geometry" />
        </mxCell>
        <mxCell id="uhZbqTB7t5NrahT7hXU0-114" value="1" style="shape=partialRectangle;html=1;whiteSpace=wrap;connectable=0;strokeColor=inherit;overflow=hidden;fillColor=none;top=0;left=0;bottom=0;right=0;pointerEvents=1;" vertex="1" parent="uhZbqTB7t5NrahT7hXU0-113">
          <mxGeometry width="29" height="40" as="geometry">
            <mxRectangle width="29" height="40" as="alternateBounds" />
          </mxGeometry>
        </mxCell>
        <mxCell id="uhZbqTB7t5NrahT7hXU0-115" value="0" style="shape=partialRectangle;html=1;whiteSpace=wrap;connectable=0;strokeColor=inherit;overflow=hidden;fillColor=none;top=0;left=0;bottom=0;right=0;pointerEvents=1;" vertex="1" parent="uhZbqTB7t5NrahT7hXU0-113">
          <mxGeometry x="29" width="29" height="40" as="geometry">
            <mxRectangle width="29" height="40" as="alternateBounds" />
          </mxGeometry>
        </mxCell>
        <mxCell id="uhZbqTB7t5NrahT7hXU0-116" value="0" style="shape=partialRectangle;html=1;whiteSpace=wrap;connectable=0;strokeColor=inherit;overflow=hidden;fillColor=none;top=0;left=0;bottom=0;right=0;pointerEvents=1;" vertex="1" parent="uhZbqTB7t5NrahT7hXU0-113">
          <mxGeometry x="58" width="28" height="40" as="geometry">
            <mxRectangle width="28" height="40" as="alternateBounds" />
          </mxGeometry>
        </mxCell>
        <mxCell id="uhZbqTB7t5NrahT7hXU0-117" value="1" style="shape=partialRectangle;html=1;whiteSpace=wrap;connectable=0;strokeColor=inherit;overflow=hidden;fillColor=none;top=0;left=0;bottom=0;right=0;pointerEvents=1;" vertex="1" parent="uhZbqTB7t5NrahT7hXU0-113">
          <mxGeometry x="86" width="29" height="40" as="geometry">
            <mxRectangle width="29" height="40" as="alternateBounds" />
          </mxGeometry>
        </mxCell>
        <mxCell id="uhZbqTB7t5NrahT7hXU0-118" value="1" style="shape=partialRectangle;html=1;whiteSpace=wrap;connectable=0;strokeColor=inherit;overflow=hidden;fillColor=none;top=0;left=0;bottom=0;right=0;pointerEvents=1;" vertex="1" parent="uhZbqTB7t5NrahT7hXU0-113">
          <mxGeometry x="115" width="29" height="40" as="geometry">
            <mxRectangle width="29" height="40" as="alternateBounds" />
          </mxGeometry>
        </mxCell>
        <mxCell id="uhZbqTB7t5NrahT7hXU0-119" value="0" style="shape=partialRectangle;html=1;whiteSpace=wrap;connectable=0;strokeColor=inherit;overflow=hidden;fillColor=none;top=0;left=0;bottom=0;right=0;pointerEvents=1;" vertex="1" parent="uhZbqTB7t5NrahT7hXU0-113">
          <mxGeometry x="144" width="29" height="40" as="geometry">
            <mxRectangle width="29" height="40" as="alternateBounds" />
          </mxGeometry>
        </mxCell>
        <mxCell id="uhZbqTB7t5NrahT7hXU0-120" value="1" style="shape=partialRectangle;html=1;whiteSpace=wrap;connectable=0;strokeColor=inherit;overflow=hidden;fillColor=none;top=0;left=0;bottom=0;right=0;pointerEvents=1;" vertex="1" parent="uhZbqTB7t5NrahT7hXU0-113">
          <mxGeometry x="173" width="28" height="40" as="geometry">
            <mxRectangle width="28" height="40" as="alternateBounds" />
          </mxGeometry>
        </mxCell>
        <mxCell id="uhZbqTB7t5NrahT7hXU0-121" value="1" style="shape=partialRectangle;html=1;whiteSpace=wrap;connectable=0;strokeColor=inherit;overflow=hidden;fillColor=none;top=0;left=0;bottom=0;right=0;pointerEvents=1;" vertex="1" parent="uhZbqTB7t5NrahT7hXU0-113">
          <mxGeometry x="201" width="29" height="40" as="geometry">
            <mxRectangle width="29" height="40" as="alternateBounds" />
          </mxGeometry>
        </mxCell>
        <mxCell id="uhZbqTB7t5NrahT7hXU0-122" value="Oitavo&lt;div&gt;impulso&lt;/div&gt;" style="text;html=1;align=center;verticalAlign=middle;whiteSpace=wrap;rounded=0;" vertex="1" parent="1">
          <mxGeometry x="690" y="325" width="60" height="30" as="geometry" />
        </mxCell>
        <mxCell id="uhZbqTB7t5NrahT7hXU0-125" style="edgeStyle=orthogonalEdgeStyle;rounded=0;orthogonalLoop=1;jettySize=auto;html=1;exitX=0.25;exitY=1;exitDx=0;exitDy=0;entryX=-0.001;entryY=0.83;entryDx=0;entryDy=0;entryPerimeter=0;" edge="1" parent="1" source="uhZbqTB7t5NrahT7hXU0-70" target="uhZbqTB7t5NrahT7hXU0-113">
          <mxGeometry relative="1" as="geometry" />
        </mxCell>
        <mxCell id="uhZbqTB7t5NrahT7hXU0-132" value="" style="group" vertex="1" connectable="0" parent="1">
          <mxGeometry x="230" y="360" width="70" height="20" as="geometry" />
        </mxCell>
        <mxCell id="uhZbqTB7t5NrahT7hXU0-133" value="SRCLK&amp;nbsp;&amp;nbsp;" style="text;html=1;align=center;verticalAlign=middle;whiteSpace=wrap;rounded=0;" vertex="1" parent="uhZbqTB7t5NrahT7hXU0-132">
          <mxGeometry y="5" width="50" height="10" as="geometry" />
        </mxCell>
        <mxCell id="uhZbqTB7t5NrahT7hXU0-134" value="" style="group" vertex="1" connectable="0" parent="uhZbqTB7t5NrahT7hXU0-132">
          <mxGeometry x="50" width="20" height="20" as="geometry" />
        </mxCell>
        <mxCell id="uhZbqTB7t5NrahT7hXU0-135" value="" style="endArrow=none;html=1;rounded=0;movable=1;resizable=1;rotatable=1;deletable=1;editable=1;locked=0;connectable=1;" edge="1" parent="uhZbqTB7t5NrahT7hXU0-134">
          <mxGeometry width="50" height="50" relative="1" as="geometry">
            <mxPoint x="10" as="sourcePoint" />
            <mxPoint x="20" as="targetPoint" />
          </mxGeometry>
        </mxCell>
        <mxCell id="uhZbqTB7t5NrahT7hXU0-136" value="" style="edgeStyle=segmentEdgeStyle;endArrow=classic;html=1;curved=0;rounded=0;endSize=8;startSize=8;movable=1;resizable=1;rotatable=1;deletable=1;editable=1;locked=0;connectable=1;" edge="1" parent="uhZbqTB7t5NrahT7hXU0-134">
          <mxGeometry width="50" height="50" relative="1" as="geometry">
            <mxPoint y="20" as="sourcePoint" />
            <mxPoint x="10" as="targetPoint" />
          </mxGeometry>
        </mxCell>
        <mxCell id="uhZbqTB7t5NrahT7hXU0-137" value="Registo de deslocamento" style="text;html=1;align=center;verticalAlign=middle;whiteSpace=wrap;rounded=0;" vertex="1" parent="1">
          <mxGeometry x="380" y="50" width="140" height="30" as="geometry" />
        </mxCell>
        <mxCell id="uhZbqTB7t5NrahT7hXU0-138" value="" style="shape=table;startSize=0;container=1;collapsible=0;childLayout=tableLayout;strokeColor=#4D9900;" vertex="1" parent="1">
          <mxGeometry x="440" y="400" width="230" height="40" as="geometry" />
        </mxCell>
        <mxCell id="uhZbqTB7t5NrahT7hXU0-139" value="" style="shape=tableRow;horizontal=0;startSize=0;swimlaneHead=0;swimlaneBody=0;strokeColor=#4D9900;top=0;left=0;bottom=0;right=0;collapsible=0;dropTarget=0;fillColor=none;points=[[0,0.5],[1,0.5]];portConstraint=eastwest;" vertex="1" parent="uhZbqTB7t5NrahT7hXU0-138">
          <mxGeometry width="230" height="40" as="geometry" />
        </mxCell>
        <mxCell id="uhZbqTB7t5NrahT7hXU0-140" value="1" style="shape=partialRectangle;html=1;whiteSpace=wrap;connectable=0;strokeColor=inherit;overflow=hidden;fillColor=none;top=0;left=0;bottom=0;right=0;pointerEvents=1;" vertex="1" parent="uhZbqTB7t5NrahT7hXU0-139">
          <mxGeometry width="29" height="40" as="geometry">
            <mxRectangle width="29" height="40" as="alternateBounds" />
          </mxGeometry>
        </mxCell>
        <mxCell id="uhZbqTB7t5NrahT7hXU0-141" value="0" style="shape=partialRectangle;html=1;whiteSpace=wrap;connectable=0;strokeColor=inherit;overflow=hidden;fillColor=none;top=0;left=0;bottom=0;right=0;pointerEvents=1;" vertex="1" parent="uhZbqTB7t5NrahT7hXU0-139">
          <mxGeometry x="29" width="29" height="40" as="geometry">
            <mxRectangle width="29" height="40" as="alternateBounds" />
          </mxGeometry>
        </mxCell>
        <mxCell id="uhZbqTB7t5NrahT7hXU0-142" value="0" style="shape=partialRectangle;html=1;whiteSpace=wrap;connectable=0;strokeColor=inherit;overflow=hidden;fillColor=none;top=0;left=0;bottom=0;right=0;pointerEvents=1;" vertex="1" parent="uhZbqTB7t5NrahT7hXU0-139">
          <mxGeometry x="58" width="28" height="40" as="geometry">
            <mxRectangle width="28" height="40" as="alternateBounds" />
          </mxGeometry>
        </mxCell>
        <mxCell id="uhZbqTB7t5NrahT7hXU0-143" value="1" style="shape=partialRectangle;html=1;whiteSpace=wrap;connectable=0;strokeColor=inherit;overflow=hidden;fillColor=none;top=0;left=0;bottom=0;right=0;pointerEvents=1;" vertex="1" parent="uhZbqTB7t5NrahT7hXU0-139">
          <mxGeometry x="86" width="29" height="40" as="geometry">
            <mxRectangle width="29" height="40" as="alternateBounds" />
          </mxGeometry>
        </mxCell>
        <mxCell id="uhZbqTB7t5NrahT7hXU0-144" value="1" style="shape=partialRectangle;html=1;whiteSpace=wrap;connectable=0;strokeColor=inherit;overflow=hidden;fillColor=none;top=0;left=0;bottom=0;right=0;pointerEvents=1;" vertex="1" parent="uhZbqTB7t5NrahT7hXU0-139">
          <mxGeometry x="115" width="29" height="40" as="geometry">
            <mxRectangle width="29" height="40" as="alternateBounds" />
          </mxGeometry>
        </mxCell>
        <mxCell id="uhZbqTB7t5NrahT7hXU0-145" value="0" style="shape=partialRectangle;html=1;whiteSpace=wrap;connectable=0;strokeColor=inherit;overflow=hidden;fillColor=none;top=0;left=0;bottom=0;right=0;pointerEvents=1;" vertex="1" parent="uhZbqTB7t5NrahT7hXU0-139">
          <mxGeometry x="144" width="29" height="40" as="geometry">
            <mxRectangle width="29" height="40" as="alternateBounds" />
          </mxGeometry>
        </mxCell>
        <mxCell id="uhZbqTB7t5NrahT7hXU0-146" value="1" style="shape=partialRectangle;html=1;whiteSpace=wrap;connectable=0;strokeColor=inherit;overflow=hidden;fillColor=none;top=0;left=0;bottom=0;right=0;pointerEvents=1;" vertex="1" parent="uhZbqTB7t5NrahT7hXU0-139">
          <mxGeometry x="173" width="28" height="40" as="geometry">
            <mxRectangle width="28" height="40" as="alternateBounds" />
          </mxGeometry>
        </mxCell>
        <mxCell id="uhZbqTB7t5NrahT7hXU0-147" value="1" style="shape=partialRectangle;html=1;whiteSpace=wrap;connectable=0;strokeColor=inherit;overflow=hidden;fillColor=none;top=0;left=0;bottom=0;right=0;pointerEvents=1;" vertex="1" parent="uhZbqTB7t5NrahT7hXU0-139">
          <mxGeometry x="201" width="29" height="40" as="geometry">
            <mxRectangle width="29" height="40" as="alternateBounds" />
          </mxGeometry>
        </mxCell>
        <mxCell id="uhZbqTB7t5NrahT7hXU0-151" value="Registo de memória" style="text;html=1;align=center;verticalAlign=middle;whiteSpace=wrap;rounded=0;" vertex="1" parent="1">
          <mxGeometry x="680" y="405" width="140" height="30" as="geometry" />
        </mxCell>
        <mxCell id="uhZbqTB7t5NrahT7hXU0-153" value="" style="group" vertex="1" connectable="0" parent="1">
          <mxGeometry x="230" y="425" width="70" height="20" as="geometry" />
        </mxCell>
        <mxCell id="uhZbqTB7t5NrahT7hXU0-154" value="RCLK&amp;nbsp;&amp;nbsp;" style="text;html=1;align=center;verticalAlign=middle;whiteSpace=wrap;rounded=0;" vertex="1" parent="uhZbqTB7t5NrahT7hXU0-153">
          <mxGeometry y="5" width="50" height="10" as="geometry" />
        </mxCell>
        <mxCell id="uhZbqTB7t5NrahT7hXU0-155" value="" style="group" vertex="1" connectable="0" parent="uhZbqTB7t5NrahT7hXU0-153">
          <mxGeometry x="50" width="20" height="20" as="geometry" />
        </mxCell>
        <mxCell id="uhZbqTB7t5NrahT7hXU0-156" value="" style="endArrow=none;html=1;rounded=0;movable=1;resizable=1;rotatable=1;deletable=1;editable=1;locked=0;connectable=1;" edge="1" parent="uhZbqTB7t5NrahT7hXU0-155">
          <mxGeometry width="50" height="50" relative="1" as="geometry">
            <mxPoint x="10" as="sourcePoint" />
            <mxPoint x="20" as="targetPoint" />
          </mxGeometry>
        </mxCell>
        <mxCell id="uhZbqTB7t5NrahT7hXU0-157" value="" style="edgeStyle=segmentEdgeStyle;endArrow=classic;html=1;curved=0;rounded=0;endSize=8;startSize=8;movable=1;resizable=1;rotatable=1;deletable=1;editable=1;locked=0;connectable=1;" edge="1" parent="uhZbqTB7t5NrahT7hXU0-155">
          <mxGeometry width="50" height="50" relative="1" as="geometry">
            <mxPoint y="20" as="sourcePoint" />
            <mxPoint x="10" as="targetPoint" />
          </mxGeometry>
        </mxCell>
        <mxCell id="uhZbqTB7t5NrahT7hXU0-159" value="" style="endArrow=classic;html=1;rounded=0;exitX=0.06;exitY=0.997;exitDx=0;exitDy=0;exitPerimeter=0;entryX=0.06;entryY=-0.014;entryDx=0;entryDy=0;entryPerimeter=0;" edge="1" parent="1">
          <mxGeometry width="50" height="50" relative="1" as="geometry">
            <mxPoint x="456.00000000000006" y="359.87999999999994" as="sourcePoint" />
            <mxPoint x="456.00000000000006" y="399.43999999999994" as="targetPoint" />
          </mxGeometry>
        </mxCell>
        <mxCell id="uhZbqTB7t5NrahT7hXU0-160" value="" style="endArrow=classic;html=1;rounded=0;exitX=0.06;exitY=0.997;exitDx=0;exitDy=0;exitPerimeter=0;entryX=0.06;entryY=-0.014;entryDx=0;entryDy=0;entryPerimeter=0;" edge="1" parent="1">
          <mxGeometry width="50" height="50" relative="1" as="geometry">
            <mxPoint x="484.86" y="360" as="sourcePoint" />
            <mxPoint x="484.86" y="399" as="targetPoint" />
          </mxGeometry>
        </mxCell>
        <mxCell id="uhZbqTB7t5NrahT7hXU0-161" value="" style="endArrow=classic;html=1;rounded=0;exitX=0.06;exitY=0.997;exitDx=0;exitDy=0;exitPerimeter=0;entryX=0.06;entryY=-0.014;entryDx=0;entryDy=0;entryPerimeter=0;" edge="1" parent="1">
          <mxGeometry width="50" height="50" relative="1" as="geometry">
            <mxPoint x="514" y="360" as="sourcePoint" />
            <mxPoint x="514" y="399" as="targetPoint" />
          </mxGeometry>
        </mxCell>
        <mxCell id="uhZbqTB7t5NrahT7hXU0-162" value="" style="endArrow=classic;html=1;rounded=0;exitX=0.06;exitY=0.997;exitDx=0;exitDy=0;exitPerimeter=0;entryX=0.06;entryY=-0.014;entryDx=0;entryDy=0;entryPerimeter=0;" edge="1" parent="1">
          <mxGeometry width="50" height="50" relative="1" as="geometry">
            <mxPoint x="540" y="360" as="sourcePoint" />
            <mxPoint x="540" y="399" as="targetPoint" />
          </mxGeometry>
        </mxCell>
        <mxCell id="uhZbqTB7t5NrahT7hXU0-163" value="" style="endArrow=classic;html=1;rounded=0;exitX=0.06;exitY=0.997;exitDx=0;exitDy=0;exitPerimeter=0;entryX=0.06;entryY=-0.014;entryDx=0;entryDy=0;entryPerimeter=0;" edge="1" parent="1">
          <mxGeometry width="50" height="50" relative="1" as="geometry">
            <mxPoint x="570" y="360" as="sourcePoint" />
            <mxPoint x="570" y="399" as="targetPoint" />
          </mxGeometry>
        </mxCell>
        <mxCell id="uhZbqTB7t5NrahT7hXU0-164" value="" style="endArrow=classic;html=1;rounded=0;exitX=0.06;exitY=0.997;exitDx=0;exitDy=0;exitPerimeter=0;entryX=0.06;entryY=-0.014;entryDx=0;entryDy=0;entryPerimeter=0;" edge="1" parent="1">
          <mxGeometry width="50" height="50" relative="1" as="geometry">
            <mxPoint x="599.86" y="360" as="sourcePoint" />
            <mxPoint x="599.86" y="399" as="targetPoint" />
          </mxGeometry>
        </mxCell>
        <mxCell id="uhZbqTB7t5NrahT7hXU0-165" value="" style="endArrow=classic;html=1;rounded=0;exitX=0.06;exitY=0.997;exitDx=0;exitDy=0;exitPerimeter=0;entryX=0.06;entryY=-0.014;entryDx=0;entryDy=0;entryPerimeter=0;" edge="1" parent="1">
          <mxGeometry width="50" height="50" relative="1" as="geometry">
            <mxPoint x="627" y="360" as="sourcePoint" />
            <mxPoint x="627" y="399" as="targetPoint" />
          </mxGeometry>
        </mxCell>
        <mxCell id="uhZbqTB7t5NrahT7hXU0-166" value="" style="endArrow=classic;html=1;rounded=0;exitX=0.06;exitY=0.997;exitDx=0;exitDy=0;exitPerimeter=0;entryX=0.06;entryY=-0.014;entryDx=0;entryDy=0;entryPerimeter=0;" edge="1" parent="1">
          <mxGeometry width="50" height="50" relative="1" as="geometry">
            <mxPoint x="657" y="360" as="sourcePoint" />
            <mxPoint x="657" y="399" as="targetPoint" />
          </mxGeometry>
        </mxCell>
        <mxCell id="uhZbqTB7t5NrahT7hXU0-167" value="" style="endArrow=classic;html=1;rounded=0;exitX=0.06;exitY=0.997;exitDx=0;exitDy=0;exitPerimeter=0;entryX=0.06;entryY=-0.014;entryDx=0;entryDy=0;entryPerimeter=0;" edge="1" parent="1">
          <mxGeometry width="50" height="50" relative="1" as="geometry">
            <mxPoint x="456.00000000000006" y="439.99999999999994" as="sourcePoint" />
            <mxPoint x="456.00000000000006" y="479.55999999999995" as="targetPoint" />
          </mxGeometry>
        </mxCell>
        <mxCell id="uhZbqTB7t5NrahT7hXU0-168" value="" style="endArrow=classic;html=1;rounded=0;exitX=0.06;exitY=0.997;exitDx=0;exitDy=0;exitPerimeter=0;entryX=0.06;entryY=-0.014;entryDx=0;entryDy=0;entryPerimeter=0;" edge="1" parent="1">
          <mxGeometry width="50" height="50" relative="1" as="geometry">
            <mxPoint x="484.86" y="440.12" as="sourcePoint" />
            <mxPoint x="484.86" y="479.12" as="targetPoint" />
          </mxGeometry>
        </mxCell>
        <mxCell id="uhZbqTB7t5NrahT7hXU0-169" value="" style="endArrow=classic;html=1;rounded=0;exitX=0.06;exitY=0.997;exitDx=0;exitDy=0;exitPerimeter=0;entryX=0.06;entryY=-0.014;entryDx=0;entryDy=0;entryPerimeter=0;" edge="1" parent="1">
          <mxGeometry width="50" height="50" relative="1" as="geometry">
            <mxPoint x="514" y="440.12" as="sourcePoint" />
            <mxPoint x="514" y="479.12" as="targetPoint" />
          </mxGeometry>
        </mxCell>
        <mxCell id="uhZbqTB7t5NrahT7hXU0-170" value="" style="endArrow=classic;html=1;rounded=0;exitX=0.06;exitY=0.997;exitDx=0;exitDy=0;exitPerimeter=0;entryX=0.06;entryY=-0.014;entryDx=0;entryDy=0;entryPerimeter=0;" edge="1" parent="1">
          <mxGeometry width="50" height="50" relative="1" as="geometry">
            <mxPoint x="540" y="440.12" as="sourcePoint" />
            <mxPoint x="540" y="479.12" as="targetPoint" />
          </mxGeometry>
        </mxCell>
        <mxCell id="uhZbqTB7t5NrahT7hXU0-171" value="" style="endArrow=classic;html=1;rounded=0;exitX=0.06;exitY=0.997;exitDx=0;exitDy=0;exitPerimeter=0;entryX=0.06;entryY=-0.014;entryDx=0;entryDy=0;entryPerimeter=0;" edge="1" parent="1">
          <mxGeometry width="50" height="50" relative="1" as="geometry">
            <mxPoint x="570" y="440.12" as="sourcePoint" />
            <mxPoint x="570" y="479.12" as="targetPoint" />
          </mxGeometry>
        </mxCell>
        <mxCell id="uhZbqTB7t5NrahT7hXU0-172" value="" style="endArrow=classic;html=1;rounded=0;exitX=0.06;exitY=0.997;exitDx=0;exitDy=0;exitPerimeter=0;entryX=0.06;entryY=-0.014;entryDx=0;entryDy=0;entryPerimeter=0;" edge="1" parent="1">
          <mxGeometry width="50" height="50" relative="1" as="geometry">
            <mxPoint x="599.86" y="440.12" as="sourcePoint" />
            <mxPoint x="599.86" y="479.12" as="targetPoint" />
          </mxGeometry>
        </mxCell>
        <mxCell id="uhZbqTB7t5NrahT7hXU0-173" value="" style="endArrow=classic;html=1;rounded=0;exitX=0.06;exitY=0.997;exitDx=0;exitDy=0;exitPerimeter=0;entryX=0.06;entryY=-0.014;entryDx=0;entryDy=0;entryPerimeter=0;" edge="1" parent="1">
          <mxGeometry width="50" height="50" relative="1" as="geometry">
            <mxPoint x="627" y="440.12" as="sourcePoint" />
            <mxPoint x="627" y="479.12" as="targetPoint" />
          </mxGeometry>
        </mxCell>
        <mxCell id="uhZbqTB7t5NrahT7hXU0-174" value="" style="endArrow=classic;html=1;rounded=0;exitX=0.06;exitY=0.997;exitDx=0;exitDy=0;exitPerimeter=0;entryX=0.06;entryY=-0.014;entryDx=0;entryDy=0;entryPerimeter=0;" edge="1" parent="1">
          <mxGeometry width="50" height="50" relative="1" as="geometry">
            <mxPoint x="657" y="440.12" as="sourcePoint" />
            <mxPoint x="657" y="479.12" as="targetPoint" />
          </mxGeometry>
        </mxCell>
        <mxCell id="uhZbqTB7t5NrahT7hXU0-175" value="Relés" style="text;html=1;align=center;verticalAlign=middle;whiteSpace=wrap;rounded=0;" vertex="1" parent="1">
          <mxGeometry x="525" y="490" width="60" height="30" as="geometry" />
        </mxCell>
      </root>
    </mxGraphModel>
  </diagram>
</mxfile>
